name rise44.9368peak50.754fall52.0217.mot
datacolumns 19
datarows 14
range 19.26993400000000 19.29159400000000
endheader
time	ground_force1_vx	ground_force1_vy	ground_force1_vz	ground_force1_px	ground_force1_py	ground_force1_pz	ground_force2_vx	ground_force2_vy	ground_force2_vz	ground_force2_px	ground_force2_py	ground_force2_pz	ground_torque1_x	ground_torque1_y	ground_torque1_z	ground_torque2_x	ground_torque2_y	ground_torque2_z	
19.26993400000000	-0.85299800000000	41.46399300000000	-7.64599700000000	0.35296100000000	0.00000000000000	0.14877300000000	-52.50351200000000	809.16848700000003	-64.06779899999999	0.14318500000000	0.00000000000000	-0.05782800000000	0.00000000000000	-6.53951000000000	0.00000000000000	0.00000000000000	-22.48643400000000	0.00000000000000	
19.27159900000000	-0.93592500000000	48.44696800000000	-8.63098200000000	0.35732200000000	0.00000000000000	0.14947700000000	-53.50834100000000	807.65473099999997	-63.90188500000000	0.14230800000000	0.00000000000000	-0.05773600000000	0.00000000000000	-7.41926400000000	0.00000000000000	0.00000000000000	-22.42254600000000	0.00000000000000	
19.27326200000000	-0.99462800000000	55.48047100000000	-9.53625000000000	0.36128500000000	0.00000000000000	0.15012800000000	-54.52141100000000	805.96434099999999	-63.70626200000000	0.14144000000000	0.00000000000000	-0.05764100000000	0.00000000000000	-8.23856000000000	0.00000000000000	0.00000000000000	-22.35552000000000	0.00000000000000	
19.27492700000000	-1.02331600000000	62.47188600000000	-10.34090400000000	0.36490200000000	0.00000000000000	0.15073500000000	-55.54151200000000	804.09258999999997	-63.48034200000000	0.14058200000000	0.00000000000000	-0.05754100000000	0.00000000000000	-8.97934500000000	0.00000000000000	0.00000000000000	-22.28522700000000	0.00000000000000	
19.27659300000000	-1.01684900000000	69.35258200000000	-11.03053300000000	0.36821600000000	0.00000000000000	0.15130300000000	-56.56733400000000	802.03481399999998	-63.22358300000000	0.13973400000000	0.00000000000000	-0.05743800000000	0.00000000000000	-9.62930300000000	0.00000000000000	0.00000000000000	-22.21153700000000	0.00000000000000	
19.27826400000000	-0.97084400000000	76.07991100000000	-11.59735700000000	0.37126100000000	0.00000000000000	0.15183800000000	-57.59747000000000	799.78641900000002	-62.93549300000000	0.13889500000000	0.00000000000000	-0.05733000000000	0.00000000000000	-10.18202600000000	0.00000000000000	0.00000000000000	-22.13430900000000	0.00000000000000	
19.27993200000000	-0.88172400000000	82.63672900000000	-12.03981200000000	0.37406700000000	0.00000000000000	0.15234400000000	-58.63041700000000	797.34289799999999	-62.61563300000000	0.13806500000000	0.00000000000000	-0.05721800000000	0.00000000000000	-10.63668100000000	0.00000000000000	0.00000000000000	-22.05339700000000	0.00000000000000	
19.28159400000000	-0.74669700000000	89.02891099999999	-12.36169700000000	0.37665900000000	0.00000000000000	0.15282400000000	-59.66457600000000	794.69983999999999	-62.26362100000000	0.13724400000000	0.00000000000000	-0.05710200000000	0.00000000000000	-10.99726300000000	0.00000000000000	0.00000000000000	-21.96865100000000	0.00000000000000	
19.28326600000000	-0.56368700000000	95.28139100000000	-12.57102800000000	0.37905700000000	0.00000000000000	0.15328100000000	-60.69825700000000	791.85294699999997	-61.87913000000000	0.13643200000000	0.00000000000000	-0.05698200000000	0.00000000000000	-11.27157700000000	0.00000000000000	0.00000000000000	-21.87991400000000	0.00000000000000	
19.28492700000000	-0.33123500000000	101.43333500000000	-12.67875500000000	0.38128100000000	0.00000000000000	0.15371800000000	-61.72967800000000	788.79804700000000	-61.46189900000000	0.13562900000000	0.00000000000000	-0.05685800000000	0.00000000000000	-11.47008600000000	0.00000000000000	0.00000000000000	-21.78702400000000	0.00000000000000	
19.28659600000000	-0.04837700000000	107.53297300000000	-12.69745500000000	0.38334500000000	0.00000000000000	0.15413700000000	-62.75697200000000	785.53111200000001	-61.01172500000000	0.13483400000000	0.00000000000000	-0.05673100000000	0.00000000000000	-11.60472500000000	0.00000000000000	0.00000000000000	-21.68981700000000	0.00000000000000	
19.28826000000000	0.28548000000000	113.63259900000000	-12.64012800000000	0.38526200000000	0.00000000000000	0.15453900000000	-63.77818500000000	782.04827100000000	-60.52847700000000	0.13404700000000	0.00000000000000	-0.05659900000000	0.00000000000000	-11.68780600000000	0.00000000000000	0.00000000000000	-21.58812400000000	0.00000000000000	
19.28992900000000	0.67068100000000	119.78407600000000	-12.51916900000000	0.38704400000000	0.00000000000000	0.15492700000000	-64.79128799999999	778.34583199999997	-60.01208700000000	0.13326700000000	0.00000000000000	-0.05646300000000	0.00000000000000	-11.73107500000000	0.00000000000000	0.00000000000000	-21.48177500000000	0.00000000000000	
19.29159400000000	1.10742600000000	126.03514300000001	-12.34555700000000	0.38870100000000	0.00000000000000	0.15530200000000	-65.79417500000000	774.42029500000001	-59.46256100000000	0.13249600000000	0.00000000000000	-0.05632300000000	0.00000000000000	-11.74497100000000	0.00000000000000	0.00000000000000	-21.37059800000000	0.00000000000000	
